<svg width="25" height="25" viewBox="0 0 25 25" fill="none" xmlns="http://www.w3.org/2000/svg">
<path d="M12.5 0C5.60547 0 0 5.60547 0 12.5C0 19.3945 5.60547 25 12.5 25C19.3945 25 25 19.3945 25 12.5C25 5.60547 19.3945 0 12.5 0Z" fill="white" fill-opacity="0.7"/>
<path d="M13.697 19.0718V13.2232H15.6602L15.9541 10.9438H13.697V9.48854C13.697 8.82863 13.8803 8.37887 14.8267 8.37887L16.0337 8.37832V6.33972C15.8248 6.31204 15.1084 6.25 14.2749 6.25C12.5346 6.25 11.3433 7.31218 11.3433 9.26292V10.9439H9.375V13.2232H11.3432V19.0719L13.697 19.0718Z" fill="#212C52"/>
</svg>
