<svg width="26" height="25" viewBox="0 0 26 25" fill="none" xmlns="http://www.w3.org/2000/svg">
<path d="M12.9287 0C6.03418 0 0.428711 5.60547 0.428711 12.5C0.428711 19.3945 6.03418 25 12.9287 25C19.8232 25 25.4287 19.3945 25.4287 12.5C25.4287 5.60547 19.8232 0 12.9287 0Z" fill="white" fill-opacity="0.7"/>
<path d="M17.521 10.1412C17.521 10.2464 17.521 10.3516 17.521 10.4417C17.521 13.5517 15.1472 17.1424 10.8203 17.1424C9.48312 17.1424 8.25115 16.7518 7.19946 16.0907C7.37975 16.1058 7.57506 16.1208 7.75535 16.1208C8.85211 16.1208 9.87374 15.7452 10.685 15.1142C9.64838 15.0992 8.77699 14.4081 8.49153 13.4766C8.64177 13.5066 8.77699 13.5216 8.94225 13.5216C9.15259 13.5216 9.36292 13.4916 9.55824 13.4315C8.47651 13.2212 7.66521 12.2746 7.66521 11.1328C7.66521 11.1178 7.66521 11.1178 7.66521 11.1028C7.98071 11.2831 8.34129 11.3882 8.73191 11.4032C8.10091 10.9826 7.68023 10.2614 7.68023 9.4351C7.68023 8.9994 7.80042 8.59375 7.99574 8.2482C9.15259 9.67548 10.8954 10.607 12.8485 10.7121C12.8034 10.5469 12.7884 10.3516 12.7884 10.1713C12.7884 8.86418 13.8401 7.8125 15.1472 7.8125C15.8233 7.8125 16.4392 8.09796 16.8599 8.54868C17.4008 8.44351 17.8966 8.2482 18.3623 7.97776C18.182 8.53365 17.8064 8.98438 17.3257 9.28486C17.8064 9.22476 18.2572 9.10457 18.6778 8.90925C18.3773 9.39002 17.9867 9.8107 17.521 10.1412Z" fill="#212C52"/>
</svg>
