<svg width="25" height="25" viewBox="0 0 25 25" fill="none" xmlns="http://www.w3.org/2000/svg">
<path d="M12.5 0C5.60547 0 0 5.60547 0 12.5C0 19.3945 5.60547 25 12.5 25C19.3945 25 25 19.3945 25 12.5C25 5.60547 19.3945 0 12.5 0Z" fill="white" fill-opacity="0.7"/>
<path d="M9.65202 7.28323C9.65202 7.99464 9.1405 8.56491 8.3181 8.56491H8.30278C7.51103 8.56543 7 7.99413 7 7.28323C7 6.55476 7.52734 6 8.33342 6C9.1405 5.99948 9.63719 6.55476 9.65202 7.28323ZM7.13838 16.9995H9.49683V9.57877H7.13838V16.9995ZM15.2852 9.40506C14.0343 9.40506 13.4744 10.1237 13.1595 10.6304V10.6542H13.1442C13.1502 10.6469 13.1556 10.6387 13.1595 10.6304V9.57929H10.8016C10.8322 10.2747 10.8016 17 10.8016 17H13.1595V12.8556C13.1595 12.6323 13.1739 12.4136 13.2371 12.2538C13.4081 11.8123 13.7966 11.3506 14.446 11.3506C15.3005 11.3506 15.642 12.0325 15.642 13.0293V17H18V12.7455C18.0005 10.4644 16.8361 9.40506 15.2852 9.40506Z" fill="#212C52"/>
</svg>
